<?xml version="1.0" encoding="UTF-8" standalone="no"?>
<svg
   viewBox="0 0 16 16"
   version="1.1"
   id="svg1"
   sodipodi:docname="tabsync.svg"
   inkscape:version="1.4.3 (0d15f75042, 2025-12-25)"
   xmlns:inkscape="http://www.inkscape.org/namespaces/inkscape"
   xmlns:sodipodi="http://sodipodi.sourceforge.net/DTD/sodipodi-0.dtd"
   xmlns="http://www.w3.org/2000/svg"
   xmlns:svg="http://www.w3.org/2000/svg">
  <sodipodi:namedview
     id="namedview1"
     pagecolor="#000000"
     bordercolor="#000000"
     borderopacity="0.25"
     inkscape:showpageshadow="2"
     inkscape:pageopacity="0.0"
     inkscape:pagecheckerboard="0"
     inkscape:deskcolor="#d1d1d1"
     inkscape:zoom="9.02666"
     inkscape:cx="0.60930621"
     inkscape:cy="6.1484536"
     inkscape:window-width="1920"
     inkscape:window-height="1026"
     inkscape:window-x="0"
     inkscape:window-y="0"
     inkscape:window-maximized="1"
     inkscape:current-layer="svg1" />
  <defs
     id="defs3051">
    <style
       type="text/css"
       id="current-color-scheme">.ColorScheme-Text { color: #fcfcfc; } </style>
  </defs>
  <path
     style="fill:currentColor;fill-opacity:1;stroke:none"
     d="M 2,2 V 14 H 8 V 13 H 3 V 3 h 3 v 2 h 5 2 v 3 h 1 V 4 H 11 V 2 H 10 6 Z m 9.5,7 c -1.380712,-2e-7 -2.5,1.119288 -2.5,2.5 7.83e-4,0.489828 0.145444,0.968635 0.416016,1.376953 l 0.732422,-0.732422 C 10.051619,11.943408 10.000907,11.723212 10,11.5 10,10.671573 10.671573,10 11.5,10 c 0.223212,9.07e-4 0.443408,0.05162 0.644531,0.148438 L 12.876953,9.4160156 C 12.468635,9.1454439 11.989828,9.0007831 11.5,9 Z m 2.083984,1.123047 -0.732422,0.732422 C 12.948381,11.056592 12.999093,11.276788 13,11.5 13,12.328427 12.328427,13 11.5,13 11.276788,12.999093 11.056592,12.94838 10.855469,12.851562 l -0.732422,0.732422 C 10.531365,13.854556 11.010172,13.999217 11.5,14 12.880712,14 14,12.880712 14,11.5 13.999217,11.010172 13.854556,10.531365 13.583984,10.123047 Z"
     class="ColorScheme-Text"
     id="path1"
     sodipodi:nodetypes="cccccccccccccccccccccccccccccccccccc" />
</svg>
